<svg width="30" height="22" viewBox="0 0 30 22" fill="none" xmlns="http://www.w3.org/2000/svg">
<path d="M10.9608 20.8951L10.9527 20.8916L10.927 20.8776C10.7768 20.795 10.6279 20.7102 10.4802 20.6233C8.70428 19.568 7.04465 18.3284 5.52883 16.9249C2.84433 14.4201 0 10.7031 0 6.12508C0 2.70908 2.87467 8.27765e-05 6.34433 8.27765e-05C7.30888 -0.00464155 8.26208 0.208147 9.13304 0.622622C10.004 1.0371 10.7703 1.6426 11.375 2.39408C11.9798 1.64244 12.7463 1.03685 13.6175 0.622368C14.4887 0.207886 15.4421 -0.00481723 16.4068 8.27765e-05C19.8753 8.27765e-05 22.75 2.70908 22.75 6.12508C22.75 10.7043 19.9057 14.4213 17.2212 16.9238C15.7054 18.3272 14.0457 19.5669 12.2698 20.6221C12.1221 20.7094 11.9732 20.7946 11.823 20.8776L11.7973 20.8916L11.7892 20.8963L11.7857 20.8974C11.6592 20.9644 11.5182 20.9995 11.375 20.9995C11.2318 20.9995 11.0908 20.9644 10.9643 20.8974L10.9608 20.8951Z" fill="white"/>
<path d="M21.8933 18.9649L25.0833 12.7316H22.8833V8.69823L19.5833 14.9316H21.8933V18.9649ZM22.3333 21.1649C21.3189 21.1649 20.3656 20.9724 19.4733 20.5874C18.5811 20.2024 17.805 19.6799 17.145 19.0199C16.485 18.3599 15.9625 17.5838 15.5775 16.6916C15.1925 15.7993 15 14.846 15 13.8316C15 12.8171 15.1925 11.8638 15.5775 10.9716C15.9625 10.0793 16.485 9.30323 17.145 8.64323C17.805 7.98323 18.5811 7.46073 19.4733 7.07573C20.3656 6.69073 21.3189 6.49823 22.3333 6.49823C23.3478 6.49823 24.3011 6.69073 25.1933 7.07573C26.0856 7.46073 26.8617 7.98323 27.5217 8.64323C28.1817 9.30323 28.7042 10.0793 29.0892 10.9716C29.4742 11.8638 29.6667 12.8171 29.6667 13.8316C29.6667 14.846 29.4742 15.7993 29.0892 16.6916C28.7042 17.5838 28.1817 18.3599 27.5217 19.0199C26.8617 19.6799 26.0856 20.2024 25.1933 20.5874C24.3011 20.9724 23.3478 21.1649 22.3333 21.1649Z" fill="#894189"/>
<path d="M22.2667 18.4982L25.1667 12.8315H23.1667V9.16486L20.1667 14.8315H22.2667V18.4982ZM22.6667 20.4982C21.7444 20.4982 20.8778 20.3232 20.0667 19.9732C19.2556 19.6232 18.55 19.1482 17.95 18.5482C17.35 17.9482 16.875 17.2426 16.525 16.4315C16.175 15.6204 16 14.7537 16 13.8315C16 12.9093 16.175 12.0426 16.525 11.2315C16.875 10.4204 17.35 9.71486 17.95 9.11486C18.55 8.51486 19.2556 8.03986 20.0667 7.68986C20.8778 7.33986 21.7444 7.16486 22.6667 7.16486C23.5889 7.16486 24.4556 7.33986 25.2667 7.68986C26.0778 8.03986 26.7833 8.51486 27.3833 9.11486C27.9833 9.71486 28.4583 10.4204 28.8083 11.2315C29.1583 12.0426 29.3333 12.9093 29.3333 13.8315C29.3333 14.7537 29.1583 15.6204 28.8083 16.4315C28.4583 17.2426 27.9833 17.9482 27.3833 18.5482C26.7833 19.1482 26.0778 19.6232 25.2667 19.9732C24.4556 20.3232 23.5889 20.4982 22.6667 20.4982Z" fill="white"/>
</svg>
